<?xml version="1.0" encoding="utf-8"?>
<!-- Generator: Adobe Illustrator 23.1.0, SVG Export Plug-In . SVG Version: 6.00 Build 0)  -->
<svg version="1.1" id="Layer_1" xmlns="http://www.w3.org/2000/svg" xmlns:xlink="http://www.w3.org/1999/xlink" x="0px" y="0px"
	 viewBox="0 0 691.8 667.3" style="enable-background:new 0 0 691.8 667.3;" xml:space="preserve">
<style type="text/css">
	.st0{fill:#FFFFFF;}
	.st1{enable-background:new    ;}
</style>
<g id="O">
	<path d="M521.7,228.7h-42.9c-27.1,0-40.7,11.8-40.7,35.2v132.9c0,23.7,13.6,35.6,40.7,35.6h42.9c26.9,0,40.4-11.9,40.4-35.6V264
		C562.1,240.5,548.6,228.7,521.7,228.7z M516.3,390.8c0,5.3-2.8,8-8.3,8h-15.4c-5.8,0-8.7-2.7-8.7-8V270.4c0-5.3,2.9-8,8.7-8H508
		c5.5,0,8.3,2.7,8.3,8V390.8z"/>
</g>
<g id="A">
	<polygon points="264.4,432.1 215.4,432.1 183.3,355.9 169.8,323.6 144,262.1 129.9,228.4 178.6,228.4 	"/>
	<polygon points="200.1,391.3 215.3,428.1 215.3,428.1 215.6,432.2 114.6,432 78.1,432 95.6,390.4 	"/>
</g>
<g id="R">
	<path d="M308.6,354.6c17.1-3.8,25.6-15.2,25.6-34v-57c0-23.5-13.5-35.2-40.4-35.2H210l14.1,33.6h56c5.6,0,8.3,2.7,8.3,8v45.8
		c0,2.8-0.6,4.8-1.9,5.9c-1.3,1.2-3.4,1.8-6.4,1.8h-30.2l13.6,32.3l32,76.2h49L308.6,354.6z"/>
</g>
<g id="SOWRD">
	<rect x="377.8" y="199.4" width="16" height="51.2"/>
	<polygon points="405,400.9 366.6,400.9 369.1,242.6 404.9,242.9 	"/>
	<polygon points="385.8,400.9 405,400.9 395.4,417.1 385.8,433.3 376.2,417.1 366.6,400.9 	"/>
	<g id="Layer_6">
	</g>
	<polygon class="st0" points="385.8,404.7 385.8,404.7 382.7,250.5 388.9,250.5 	"/>
</g>
<g id="Layer_9">
	<g>
		<polygon points="385.8,256.5 352.1,281.6 352.1,248.5 385.8,223.6 		"/>
		<polygon points="385.8,256.5 419.5,281.6 419.5,248.5 385.8,223.6 		"/>
	</g>
	<circle cx="385.8" cy="191.8" r="17.6"/>
</g>
<g id="Layer_7">
	<g class="st1">
		<path d="M78.9,481.6l7.2-29h9.4l7.2,29h-4.7l-1.6-6.2H85.2l-1.6,6.2H78.9z M89.7,456.6l-3.6,14.7h9.3l-3.6-14.7H89.7z"/>
		<path d="M111.5,471.3v10.3h-4.7v-29h11c6.5,0,9.8,3.1,9.8,9.2c0,4.1-1.6,6.9-4.7,8.4l4.8,11.4h-5.2l-4.2-10.3H111.5z M122.8,461.9
			c0-3.5-1.7-5.2-5-5.2h-6.3v10.5h6.4c1.7,0,2.9-0.5,3.7-1.5C122.4,464.8,122.8,463.5,122.8,461.9z"/>
		<path d="M132.9,481.6v-29h4.7v29H132.9z"/>
		<path d="M164,478.5c-1.7,2.4-4.8,3.6-9.2,3.6c-4.4,0-7.4-1.2-9.2-3.6c-1.8-2.4-2.6-6.1-2.6-11.2s0.9-8.9,2.6-11.4
			c1.8-2.5,4.8-3.7,9.2-3.7c4.3,0,7.4,1.2,9.1,3.7c1.7,2.5,2.6,6.3,2.6,11.4S165.7,476.2,164,478.5z M149.3,475.5
			c1,1.7,2.8,2.5,5.5,2.5s4.5-0.8,5.5-2.5c0.9-1.6,1.4-4.4,1.4-8.2c0-3.9-0.5-6.7-1.5-8.4c-1-1.7-2.8-2.6-5.4-2.6
			c-2.7,0-4.5,0.9-5.5,2.6c-1,1.8-1.5,4.5-1.5,8.4C147.9,471.1,148.4,473.8,149.3,475.5z"/>
		<path d="M181.4,481.6v-29h8.2l6.5,22.6l6.5-22.6h8.2v29H206v-23.8h-0.6l-6.9,22.6h-4.9l-6.9-22.6h-0.6v23.8H181.4z"/>
		<path d="M217.3,481.6v-29h4.7v29H217.3z"/>
		<path d="M238.5,482.1c-4.2,0-7.1-1.2-8.6-3.5c-1.5-2.3-2.3-6.2-2.3-11.6s0.8-9.2,2.3-11.4c1.5-2.3,4.4-3.4,8.6-3.4
			c2.5,0,5.3,0.4,8.3,1.1l-0.2,3.8c-2.5-0.5-5.1-0.7-7.6-0.7c-2.5,0-4.3,0.8-5.2,2.3c-0.9,1.5-1.4,4.3-1.4,8.5c0,4.2,0.4,7,1.3,8.5
			c0.9,1.5,2.6,2.3,5.1,2.3c2.5,0,5.1-0.2,7.7-0.6l0.1,3.9C243.8,481.8,241.1,482.1,238.5,482.1z"/>
		<path d="M256.4,471.3v10.3h-4.7v-29h11c6.5,0,9.8,3.1,9.8,9.2c0,4.1-1.6,6.9-4.7,8.4l4.8,11.4h-5.2l-4.2-10.3H256.4z M267.7,461.9
			c0-3.5-1.7-5.2-5-5.2h-6.3v10.5h6.4c1.7,0,2.9-0.5,3.7-1.5C267.4,464.8,267.7,463.5,267.7,461.9z"/>
		<path d="M297.6,478.5c-1.7,2.4-4.8,3.6-9.2,3.6c-4.4,0-7.4-1.2-9.2-3.6c-1.8-2.4-2.6-6.1-2.6-11.2s0.9-8.9,2.6-11.4
			c1.8-2.5,4.8-3.7,9.2-3.7c4.3,0,7.4,1.2,9.1,3.7c1.7,2.5,2.6,6.3,2.6,11.4S299.3,476.2,297.6,478.5z M282.9,475.5
			c1,1.7,2.8,2.5,5.5,2.5s4.5-0.8,5.5-2.5c0.9-1.6,1.4-4.4,1.4-8.2c0-3.9-0.5-6.7-1.5-8.4c-1-1.7-2.8-2.6-5.4-2.6
			c-2.7,0-4.5,0.9-5.5,2.6c-1,1.8-1.5,4.5-1.5,8.4C281.5,471.1,282,473.8,282.9,475.5z"/>
		<path d="M315,481.6v-29h18v4.1h-13.3v9.8h11v4.1h-11v11H315z"/>
		<path d="M342.1,471.3v10.3h-4.7v-29h11c6.5,0,9.8,3.1,9.8,9.2c0,4.1-1.6,6.9-4.7,8.4l4.8,11.4h-5.2l-4.2-10.3H342.1z M353.4,461.9
			c0-3.5-1.7-5.2-5-5.2h-6.3v10.5h6.4c1.7,0,2.9-0.5,3.7-1.5C353,464.8,353.4,463.5,353.4,461.9z"/>
		<path d="M360.7,481.6l7.2-29h9.4l7.2,29h-4.7l-1.6-6.2H367l-1.6,6.2H360.7z M371.5,456.6l-3.6,14.7h9.3l-3.6-14.7H371.5z"/>
		<path d="M388.6,481.6v-29h8.2l6.5,22.6l6.5-22.6h8.2v29h-4.7v-23.8h-0.6l-6.9,22.6h-4.9l-6.9-22.6h-0.6v23.8H388.6z"/>
		<path d="M424.5,481.6v-29h18.3v4.1h-13.6v8.2h11v4.1h-11v8.5h13.6v4.1H424.5z"/>
		<path d="M445.6,452.6h5l4.1,24.9h0.9l5.5-24.8h5.5l5.5,24.8h0.9l4.1-24.9h5l-5.7,29h-7.6l-5-23.2l-5,23.2h-7.6L445.6,452.6z"/>
		<path d="M506.2,478.5c-1.7,2.4-4.8,3.6-9.2,3.6s-7.4-1.2-9.2-3.6c-1.8-2.4-2.6-6.1-2.6-11.2s0.9-8.9,2.6-11.4
			c1.8-2.5,4.8-3.7,9.2-3.7c4.3,0,7.4,1.2,9.1,3.7c1.8,2.5,2.6,6.3,2.6,11.4S507.9,476.2,506.2,478.5z M491.5,475.5
			c1,1.7,2.8,2.5,5.5,2.5c2.7,0,4.5-0.8,5.5-2.5c0.9-1.6,1.4-4.4,1.4-8.2c0-3.9-0.5-6.7-1.5-8.4c-1-1.7-2.8-2.6-5.4-2.6
			s-4.5,0.9-5.5,2.6c-1,1.8-1.5,4.5-1.5,8.4C490.1,471.1,490.6,473.8,491.5,475.5z"/>
		<path d="M519,471.3v10.3h-4.7v-29h11c6.5,0,9.8,3.1,9.8,9.2c0,4.1-1.6,6.9-4.7,8.4l4.8,11.4H530l-4.2-10.3H519z M530.3,461.9
			c0-3.5-1.7-5.2-5-5.2H519v10.5h6.4c1.7,0,2.9-0.5,3.7-1.5C529.9,464.8,530.3,463.5,530.3,461.9z"/>
		<path d="M545.1,481.6h-4.7v-29h4.7v13.1l4.3-0.3l5.9-12.7h5.4l-7.2,14.6l7.4,14.4h-5.5l-6.1-12.1l-4.3,0.3V481.6z"/>
	</g>
</g>
</svg>
