<?xml version="1.0" encoding="utf-8"?>
<!-- Generator: Adobe Illustrator 23.0.1, SVG Export Plug-In . SVG Version: 6.00 Build 0)  -->
<svg version="1.1" id="Layer_1" xmlns="http://www.w3.org/2000/svg" xmlns:xlink="http://www.w3.org/1999/xlink" x="0px" y="0px"
	 viewBox="0 0 1170.8 315.9" style="enable-background:new 0 0 1170.8 315.9;" xml:space="preserve">
<style type="text/css">
	.st0{fill:#FFFFFF;}
	.st1{enable-background:new    ;}
</style>
<g id="O">
	<path d="M788.8,57.7h-42.9c-27.1,0-40.7,11.8-40.7,35.2v132.9c0,23.7,13.6,35.6,40.7,35.6h42.9c26.9,0,40.4-11.9,40.4-35.6V93
		C829.2,69.5,815.7,57.7,788.8,57.7z M783.4,219.8c0,5.3-2.8,8-8.3,8h-15.4c-5.8,0-8.7-2.7-8.7-8V99.4c0-5.3,2.9-8,8.7-8h15.4
		c5.5,0,8.3,2.7,8.3,8V219.8z"/>
</g>
<g id="A">
	<polygon points="531.5,261.1 482.5,261.1 450.4,184.9 436.9,152.6 411.1,91.1 397,57.4 445.7,57.4 	"/>
	<polygon points="467.2,220.3 482.4,257.1 482.4,257.1 482.7,261.2 381.7,261 345.2,261 362.7,219.4 	"/>
</g>
<g id="R">
	<path d="M575.7,183.6c17.1-3.8,25.6-15.2,25.6-34v-57c0-23.5-13.5-35.2-40.4-35.2h-83.8L491.2,91h56c5.6,0,8.3,2.7,8.3,8v45.8
		c0,2.8-0.6,4.8-1.9,5.9c-1.3,1.2-3.4,1.8-6.4,1.8H517l13.6,32.3l32,76.2h49L575.7,183.6z"/>
</g>
<g id="SOWRD">
	<rect x="644.9" y="28.4" width="16" height="51.2"/>
	<polygon points="672.1,229.9 633.7,229.9 636.2,71.6 672,71.9 	"/>
	<polygon points="652.9,229.9 672.1,229.9 662.5,246.1 652.9,262.3 643.3,246.1 633.7,229.9 	"/>
	<g id="Layer_6">
	</g>
	<polygon class="st0" points="652.9,233.7 652.9,233.7 649.8,79.5 656,79.5 	"/>
</g>
<g id="Layer_9">
	<g>
		<polygon points="652.9,85.5 619.2,110.6 619.2,77.5 652.9,52.6 		"/>
		<polygon points="652.9,85.5 686.6,110.6 686.6,77.5 652.9,52.6 		"/>
	</g>
	<circle cx="652.9" cy="20.8" r="17.6"/>
</g>
<g id="Layer_7">
	<g class="st1">
		<path d="M346,310.6l7.2-29h9.4l7.2,29h-4.7l-1.6-6.2h-11.2l-1.6,6.2H346z M356.8,285.6l-3.6,14.7h9.3l-3.6-14.7H356.8z"/>
		<path d="M378.6,300.3v10.3h-4.7v-29h11c6.5,0,9.8,3.1,9.8,9.2c0,4.1-1.6,6.9-4.7,8.4l4.8,11.4h-5.2l-4.2-10.3H378.6z M389.9,290.9
			c0-3.5-1.7-5.2-5-5.2h-6.3v10.5h6.4c1.7,0,2.9-0.5,3.7-1.5C389.5,293.8,389.9,292.5,389.9,290.9z"/>
		<path d="M400,310.6v-29h4.7v29H400z"/>
		<path d="M431.1,307.5c-1.7,2.4-4.8,3.6-9.2,3.6s-7.4-1.2-9.2-3.6c-1.8-2.4-2.6-6.1-2.6-11.2s0.9-8.9,2.6-11.4
			c1.8-2.5,4.8-3.7,9.2-3.7c4.3,0,7.4,1.2,9.1,3.7c1.7,2.5,2.6,6.3,2.6,11.4S432.8,305.2,431.1,307.5z M416.4,304.5
			c1,1.7,2.8,2.5,5.5,2.5c2.7,0,4.5-0.8,5.5-2.5c0.9-1.6,1.4-4.4,1.4-8.2c0-3.9-0.5-6.7-1.5-8.4c-1-1.7-2.8-2.6-5.4-2.6
			c-2.7,0-4.5,0.9-5.5,2.6c-1,1.8-1.5,4.5-1.5,8.4C415,300.1,415.5,302.8,416.4,304.5z"/>
		<path d="M448.5,310.6v-29h8.2l6.5,22.6l6.5-22.6h8.2v29h-4.8v-23.8h-0.6l-6.9,22.6h-4.9l-6.9-22.6h-0.6v23.8H448.5z"/>
		<path d="M484.4,310.6v-29h4.7v29H484.4z"/>
		<path d="M505.6,311.1c-4.2,0-7.1-1.2-8.6-3.5s-2.3-6.2-2.3-11.6s0.8-9.2,2.3-11.4c1.5-2.3,4.4-3.4,8.6-3.4c2.5,0,5.3,0.4,8.3,1.1
			l-0.2,3.8c-2.5-0.5-5.1-0.7-7.6-0.7s-4.3,0.8-5.2,2.3s-1.4,4.3-1.4,8.5s0.4,7,1.3,8.5s2.6,2.3,5.1,2.3s5.1-0.2,7.7-0.6l0.1,3.9
			C510.9,310.8,508.2,311.1,505.6,311.1z"/>
		<path d="M523.5,300.3v10.3h-4.7v-29h11c6.5,0,9.8,3.1,9.8,9.2c0,4.1-1.6,6.9-4.7,8.4l4.8,11.4h-5.2l-4.2-10.3H523.5z M534.8,290.9
			c0-3.5-1.7-5.2-5-5.2h-6.3v10.5h6.4c1.7,0,2.9-0.5,3.7-1.5C534.5,293.8,534.8,292.5,534.8,290.9z"/>
		<path d="M564.7,307.5c-1.7,2.4-4.8,3.6-9.2,3.6s-7.4-1.2-9.2-3.6s-2.6-6.1-2.6-11.2s0.9-8.9,2.6-11.4c1.8-2.5,4.8-3.7,9.2-3.7
			c4.3,0,7.4,1.2,9.1,3.7s2.6,6.3,2.6,11.4S566.4,305.2,564.7,307.5z M550,304.5c1,1.7,2.8,2.5,5.5,2.5s4.5-0.8,5.5-2.5
			c0.9-1.6,1.4-4.4,1.4-8.2c0-3.9-0.5-6.7-1.5-8.4c-1-1.7-2.8-2.6-5.4-2.6c-2.7,0-4.5,0.9-5.5,2.6c-1,1.8-1.5,4.5-1.5,8.4
			C548.6,300.1,549.1,302.8,550,304.5z"/>
		<path d="M582.1,310.6v-29h18v4.1h-13.3v9.8h11v4.1h-11v11H582.1z"/>
		<path d="M609.2,300.3v10.3h-4.7v-29h11c6.5,0,9.8,3.1,9.8,9.2c0,4.1-1.6,6.9-4.7,8.4l4.8,11.4h-5.2l-4.2-10.3H609.2z M620.5,290.9
			c0-3.5-1.7-5.2-5-5.2h-6.3v10.5h6.4c1.7,0,2.9-0.5,3.7-1.5C620.1,293.8,620.5,292.5,620.5,290.9z"/>
		<path d="M627.8,310.6l7.2-29h9.4l7.2,29h-4.7l-1.6-6.2h-11.2l-1.6,6.2H627.8z M638.6,285.6l-3.6,14.7h9.3l-3.6-14.7H638.6z"/>
		<path d="M655.7,310.6v-29h8.2l6.5,22.6l6.5-22.6h8.2v29h-4.7v-23.8h-0.6l-6.9,22.6H668l-6.9-22.6h-0.6v23.8H655.7z"/>
		<path d="M691.6,310.6v-29h18.3v4.1h-13.6v8.2h11v4.1h-11v8.5h13.6v4.1L691.6,310.6L691.6,310.6z"/>
		<path d="M712.7,281.6h5l4.1,24.9h0.9l5.5-24.8h5.5l5.5,24.8h0.9l4.1-24.9h5l-5.7,29h-7.6l-5-23.2l-5,23.2h-7.6L712.7,281.6z"/>
		<path d="M773.3,307.5c-1.7,2.4-4.8,3.6-9.2,3.6s-7.4-1.2-9.2-3.6c-1.8-2.4-2.6-6.1-2.6-11.2s0.9-8.9,2.6-11.4
			c1.8-2.5,4.8-3.7,9.2-3.7c4.3,0,7.4,1.2,9.1,3.7c1.8,2.5,2.6,6.3,2.6,11.4S775,305.2,773.3,307.5z M758.6,304.5
			c1,1.7,2.8,2.5,5.5,2.5s4.5-0.8,5.5-2.5c0.9-1.6,1.4-4.4,1.4-8.2c0-3.9-0.5-6.7-1.5-8.4c-1-1.7-2.8-2.6-5.4-2.6
			c-2.6,0-4.5,0.9-5.5,2.6c-1,1.8-1.5,4.5-1.5,8.4C757.2,300.1,757.7,302.8,758.6,304.5z"/>
		<path d="M786.1,300.3v10.3h-4.7v-29h11c6.5,0,9.8,3.1,9.8,9.2c0,4.1-1.6,6.9-4.7,8.4l4.8,11.4h-5.2l-4.2-10.3H786.1z M797.4,290.9
			c0-3.5-1.7-5.2-5-5.2h-6.3v10.5h6.4c1.7,0,2.9-0.5,3.7-1.5C797,293.8,797.4,292.5,797.4,290.9z"/>
		<path d="M812.2,310.6h-4.7v-29h4.7v13.1l4.3-0.3l5.9-12.7h5.4l-7.2,14.6l7.4,14.4h-5.5l-6.1-12.1l-4.3,0.3L812.2,310.6
			L812.2,310.6z"/>
	</g>
</g>
</svg>
